HIERARCHY
ROOT Hips
{
  OFFSET -213.699 104.721 0.752556
  CHANNELS 6 Xposition Yposition Zposition Zrotation Xrotation Yrotation
  JOINT RightUpLeg
  {
    OFFSET -8.9458 -8.66707 0.101652
    CHANNELS 3 Zrotation Xrotation Yrotation
    JOINT RightLeg
    {
      OFFSET 0 -44.4227 1.3727
      CHANNELS 3 Zrotation Xrotation Yrotation
      JOINT RightFoot
      {
        OFFSET 0.253549 -42.0924 -1.46059
        CHANNELS 3 Zrotation Xrotation Yrotation
        JOINT RightToes
        {
          OFFSET 0.04 -4.41509 8.4991
          CHANNELS 3 Zrotation Xrotation Yrotation
          End Site
          {
            OFFSET -0.08 -0.137448 9.77979
          }
        }
      }
    }
  }
  JOINT Spine
  {
    OFFSET 0 11.8905 0
    CHANNELS 3 Zrotation Xrotation Yrotation
    JOINT Spine1
    {
      OFFSET 0 25.6574 0.127663
      CHANNELS 3 Zrotation Xrotation Yrotation
      JOINT HEad
      {
        OFFSET 0 8.73416 0.011341
        CHANNELS 3 Zrotation Xrotation Yrotation
        End Site
        {
          OFFSET -0.29 12.7742 2.51395
        }
      }
      JOINT LeftShoulder1
      {
        OFFSET 8.99 -0.362252 -0.22
        CHANNELS 3 Zrotation Xrotation Yrotation
        JOINT LeftArm
        {
          OFFSET 10.2827 -0.00337999 0.322123
          CHANNELS 3 Zrotation Xrotation Yrotation
          JOINT LeftForeArm
          {
            OFFSET 26.2597 0.099144 -1.42434
            CHANNELS 3 Zrotation Xrotation Yrotation
            JOINT LeftHand
            {
              OFFSET 22.0902 0.085362 1.02216
              CHANNELS 3 Zrotation Xrotation Yrotation
              End Site
              {
                OFFSET 13.419 -0.6 1.50291
              }
            }
          }
        }
      }
      JOINT RightShoulder
      {
        OFFSET -8.99 -0.362252 -0.22
        CHANNELS 3 Zrotation Xrotation Yrotation
        JOINT RightArm
        {
          OFFSET -10.2827 -0.00338 0.322123
          CHANNELS 3 Zrotation Xrotation Yrotation
          JOINT RightForeArm
          {
            OFFSET -26.364 0.099144 -1.42434
            CHANNELS 3 Zrotation Xrotation Yrotation
            JOINT RightHand
            {
              OFFSET -22.0324 0.085362 1.02216
              CHANNELS 3 Zrotation Xrotation Yrotation
              End Site
              {
                OFFSET -13.3284 -0.6 1.50291
              }
            }
          }
        }
      }
    }
  }
  JOINT LeftUpLeg
  {
    OFFSET 8.9458 -8.66707 0.101652
    CHANNELS 3 Zrotation Xrotation Yrotation
    JOINT LeftLeg
    {
      OFFSET 0 -44.4227 1.3727
      CHANNELS 3 Zrotation Xrotation Yrotation
      JOINT LeftFoot
      {
        OFFSET -0.253549 -42.0924 -1.46059
        CHANNELS 3 Zrotation Xrotation Yrotation
        JOINT LeftToes
        {
          OFFSET -0.04 -4.41509 8.4991
          CHANNELS 3 Zrotation Xrotation Yrotation
          End Site
          {
            OFFSET 0.08 -0.047448 9.77979
          }
        }
      }
    }
  }
}
MOTION
Frames:	12
Frame Time:	0.0333333
19.7082 141.378 -115.138 -7.52033 -4.17634 -5.71932 10.0349 -3.92584 1.68735 2.30332 18.1773 -13.003 12.9132 -1.93844 -0.798094 0.0462048 0.000530889 0.662642 7.68301 8.82188 -1.10486 4.27461 2.02184 -1.26622 -11.3441 11.6352 33.5068 -33.8525 -4.02118 13.5585 -81.0599 -43.7764 -38.6064 -173.869 57.8021 177.884 9.50325 9.00377 -6.52385 29.7814 -0.730195 -6.14571 57.1317 -24.8389 24.6287 15.4792 71.2417 -4.53146 -1.94744 9.82568 0.732573 5.87515 -19.9631 -4.45271 1.26779 47.8025 16.0464 14.1729 -21.6895 1.91837 -1.31255e-009 8.75233e-006 -1.46896e-008 
19.7254 141.397 -115.147 -7.467 -4.18624 -5.6765 9.98494 -3.91 1.68264 2.27337 18.1367 -13.0436 12.897 -1.91214 -0.798082 0.0462048 0.000530889 0.662642 7.62753 8.80139 -1.11495 4.23545 2.04625 -1.27528 -11.36 11.6817 33.669 -33.7894 -3.99706 13.5144 -81.1624 -43.8473 -38.6251 -173.852 57.7292 177.966 9.53582 8.99224 -6.63326 29.7618 -0.75463 -6.21532 57.2244 -24.8453 24.6704 15.5962 71.3713 -4.69329 -2.0389 9.8256 0.768991 5.85629 -19.9379 -4.33431 1.25859 47.7201 15.8956 14.2668 -21.6716 1.92792 -1.31255e-009 8.75233e-006 -1.46896e-008 
19.7595 141.419 -115.168 -7.40813 -4.18905 -5.65121 9.95336 -3.92072 1.73711 2.18322 18.118 -13.0956 12.984 -1.87379 -0.798064 0.0462048 0.000530889 0.662642 7.57536 8.74683 -1.12517 4.18939 2.08438 -1.28632 -11.4337 11.7412 34.0282 -33.7593 -3.98401 13.4895 -81.3078 -43.9643 -38.6991 -173.824 57.5833 178.11 9.63021 8.97317 -6.75544 29.6712 -0.751585 -6.2135 57.2762 -24.8186 24.6083 15.5471 71.3195 -4.62378 -2.13956 9.82527 0.68986 5.88905 -19.9243 -4.04531 1.24256 47.6232 15.614 14.3842 -21.6628 1.94196 -1.31255e-009 8.75233e-006 -1.46896e-008 
19.8057 141.423 -115.198 -7.38811 -4.16004 -5.70289 9.95479 -4.00761 1.81636 2.09576 18.1919 -13.0932 13.0591 -1.86664 -0.797161 0.0462048 0.000530889 0.662642 7.62773 8.68373 -1.1327 4.09603 2.10302 -1.27951 -11.5005 11.7814 34.4326 -33.8019 -3.99594 13.5085 -81.3878 -44.0596 -38.8185 -173.81 57.3712 178.248 9.75184 8.95499 -6.82532 29.5838 -0.713833 -6.11428 57.1476 -24.7039 24.4475 15.4902 70.9105 -4.43212 -2.2179 9.82314 0.443526 5.96116 -19.9646 -3.73496 1.23129 47.5943 15.3953 14.4446 -21.662 1.95034 -1.31255e-009 8.75233e-006 -1.46896e-008 
19.8611 141.415 -115.237 -7.38909 -4.1167 -5.79621 9.93753 -4.14123 1.8436 2.0708 18.3273 -13.0234 13.0431 -1.88661 -0.793868 0.0462048 0.000530889 0.662642 7.79237 8.66813 -1.13718 3.91053 2.08509 -1.24119 -11.5068 11.8204 34.778 -33.8143 -3.99473 13.5023 -81.4059 -44.093 -38.8798 -173.816 57.1857 178.322 9.82558 8.94416 -6.8642 29.5889 -0.699216 -6.07291 56.9371 -24.6288 24.3645 15.7806 70.6065 -4.66166 -2.31652 9.81805 0.35485 5.99605 -20.035 -3.54885 1.22888 47.6122 15.3359 14.4864 -21.6646 1.95583 -1.31255e-009 8.75233e-006 -1.46896e-008 
19.9138 141.404 -115.285 -7.39491 -4.1137 -5.86003 9.89489 -4.23315 1.8112 2.09632 18.4503 -12.9331 13.03 -1.90498 -0.79274 0.0462048 0.000530889 0.662642 7.97439 8.74132 -1.14295 3.72708 2.03977 -1.19626 -11.5248 11.8551 35.0985 -33.752 -3.96722 13.4494 -81.4239 -44.0643 -38.8315 -173.828 57.131 178.318 9.81467 8.94413 -6.87963 29.6398 -0.71663 -6.11807 56.7929 -24.7511 24.3904 16.169 70.7929 -5.17183 -2.33501 9.81621 0.57026 5.97887 -20.0736 -3.50399 1.23131 47.6392 15.3722 14.5366 -21.6676 1.96116 -1.31255e-009 8.75233e-006 -1.46896e-008 
19.9527 141.393 -115.334 -7.41721 -4.16454 -5.88034 9.87215 -4.24374 1.77888 2.12277 18.5204 -12.8685 13.1094 -1.90706 -0.796483 0.0462048 0.000530889 0.662642 8.07849 8.86171 -1.15976 3.68208 1.99925 -1.18993 -11.6392 11.8672 35.4806 -33.7154 -3.95411 13.4259 -81.4633 -44.0046 -38.7754 -173.838 57.1416 178.288 9.76461 8.95 -6.87263 29.6383 -0.711459 -6.10368 56.6888 -24.9825 24.3829 16.167 71.1327 -5.30571 -2.17917 9.82273 0.697768 5.96369 -20.0647 -3.52347 1.23412 47.677 15.4109 14.5563 -21.6734 1.96355 -1.31255e-009 8.75233e-006 -1.46896e-008 
19.9803 141.384 -115.373 -7.45825 -4.20448 -5.90416 9.88988 -4.23431 1.79146 2.1252 18.5426 -12.8291 13.2412 -1.89092 -0.80496 0.0462048 0.000530889 0.662642 8.10919 8.92411 -1.18835 3.75646 1.99257 -1.22868 -11.8082 11.8763 35.9611 -33.7819 -3.98557 13.4876 -81.4711 -43.9285 -38.8009 -173.857 57.0762 178.272 9.72931 8.95563 -6.84826 29.592 -0.663228 -5.97183 56.5307 -25.1121 24.2906 15.9145 71.1026 -5.06648 -2.0199 9.83337 0.450027 5.98005 -20.0633 -3.54076 1.23685 47.726 15.4421 14.5365 -21.681 1.96448 -1.31255e-009 8.75233e-006 -1.46896e-008 
20.0068 141.378 -115.399 -7.48834 -4.17426 -5.95851 9.90964 -4.28001 1.82366 2.1187 18.5428 -12.7844 13.3402 -1.86301 -0.813151 0.0462048 0.000530889 0.662642 8.13023 8.86998 -1.21879 3.8072 2.02577 -1.27612 -11.9519 11.9078 36.5278 -33.8723 -4.03346 13.5841 -81.4059 -43.8278 -38.8377 -173.894 56.9666 178.235 9.68616 8.96418 -6.79606 29.5651 -0.617122 -5.84437 56.385 -25.1383 24.2185 16.0059 70.8312 -5.18999 -2.08882 9.83209 0.208332 5.99872 -20.1167 -3.53447 1.23972 47.7581 15.4844 14.5259 -21.6797 1.96361 -1.31255e-009 8.75233e-006 -1.46896e-008 
20.0333 141.375 -115.417 -7.48701 -4.10465 -6.02263 9.88334 -4.37028 1.80632 2.14125 18.5558 -12.698 13.3813 -1.8494 -0.816448 0.0462048 0.000530889 0.662642 8.16176 8.74977 -1.2438 3.77527 2.08608 -1.30567 -12.083 11.929 37.1074 -33.8745 -4.0506 13.6262 -81.318 -43.7287 -38.8001 -173.926 56.9787 178.154 9.57912 8.98118 -6.72042 29.5577 -0.605326 -5.81174 56.3645 -25.2046 24.2085 16.4419 70.8057 -5.79223 -2.26393 9.82176 0.385963 5.99343 -20.1996 -3.5137 1.24204 47.7715 15.5261 14.5231 -21.6698 1.96061 -1.31255e-009 8.75233e-006 -1.46896e-008 
20.0544 141.367 -115.433 -7.47652 -4.07383 -6.08264 9.81168 -4.43255 1.71074 2.21263 18.6014 -12.5502 13.3889 -1.87191 -0.813822 0.0462048 0.000530889 0.662642 8.17803 8.66318 -1.26288 3.72477 2.15146 -1.32041 -12.2435 11.8817 37.5891 -33.8013 -4.02472 13.5804 -81.3 -43.694 -38.7565 -173.922 57.1367 178.088 9.43592 8.9993 -6.67924 29.5494 -0.610398 -5.8265 56.3922 -25.2911 24.1755 16.7267 71.0366 -6.19336 -2.2332 9.82036 0.661343 5.97748 -20.2481 -3.50378 1.24476 47.8017 15.5689 14.4617 -21.6576 1.95096 -1.31255e-009 8.75233e-006 -1.46896e-008 
20.0722 141.354 -115.453 -7.48542 -4.10679 -6.15712 9.74375 -4.43341 1.60051 2.2912 18.6665 -12.3731 13.387 -1.91236 -0.8102 0.0462048 0.000530889 0.662642 8.17487 8.66132 -1.27464 3.69638 2.19486 -1.32426 -12.4068 11.7694 37.9724 -33.7287 -3.97534 13.4756 -81.3782 -43.734 -38.8155 -173.887 57.2764 178.106 9.37358 9.0026 -6.72346 29.5699 -0.615197 -5.83865 56.3173 -25.2602 24.081 16.6951 71.14 -6.05065 -2.01698 9.83278 0.521922 5.96655 -20.2339 -3.52029 1.24949 47.8533 15.6418 14.3463 -21.6487 1.93494 -1.31255e-009 8.75233e-006 -1.46896e-008 
